<?xml version="1.0" standalone="no"?>
<!DOCTYPE svg PUBLIC "-//W3C//DTD SVG 20010904//EN" "http://www.w3.org/TR/2001/REC-SVG-20010904/DTD/svg10.dtd">
<svg version="1.0" xmlns="http://www.w3.org/2000/svg" width="512.000000pt" height="512.000000pt" viewBox="0 0 512.000000 512.000000" preserveAspectRatio="xMidYMid meet">

  <g transform="translate(0.000000,512.000000) scale(0.100000,-0.100000)" fill="#000000" stroke="none">
    <path fill="#f8f9f9" d="M2325 5109 c-285 -29 -564 -103 -820 -217 -102 -45 -125 -66 -125
-109 0 -45 13 -68 48 -82 33 -14 39 -12 217 64 605 256 1295 243 1918 -37 95
-43 121 -44 157 -8 28 28 26 82 -2 113 -43 46 -311 151 -513 202 -301 76 -609
102 -880 74z" />
    <path fill="#f8f9f9" d="M4395 4986 c-44 -20 -649 -632 -673 -682 -29 -58 -37 -130 -19 -181
l14 -41 -551 -550 -551 -550 -57 2 -58 1 -538 538 -538 538 8 62 c16 117 -19
254 -95 368 -86 130 -276 252 -482 311 -115 32 -276 32 -358 -1 -235 -94 -273
-406 -91 -752 135 -254 359 -392 585 -360 l64 9 541 -540 541 -540 -1 -58 c-1
-57 -1 -58 -73 -133 -94 -99 -117 -143 -117 -227 -1 -193 196 -315 367 -228
21 10 73 52 115 92 l77 73 56 -1 c56 -1 57 -2 134 -75 92 -87 147 -114 230
-115 142 0 248 106 248 249 1 84 -27 138 -116 232 l-74 78 1 57 1 58 548 548
549 549 41 -14 c55 -19 125 -11 186 22 31 18 158 137 369 349 340 340 339 338
311 399 -12 27 -47 47 -82 47 -15 0 -119 -97 -342 -319 -176 -176 -332 -325
-347 -330 -36 -13 -72 0 -116 42 l-32 31 339 341 c237 237 342 349 347 369 14
57 -46 116 -104 101 -17 -4 -151 -130 -367 -346 l-341 -339 -31 32 c-42 44
-55 80 -42 116 6 15 152 169 325 342 294 295 314 318 314 351 0 33 -29 79 -50
79 -4 0 -14 2 -22 5 -7 2 -26 -2 -43 -9z m-3567 -356 c197 -55 360 -182 413
-320 24 -62 28 -161 10 -227 -25 -92 -122 -189 -214 -214 -110 -30 -239 -3
-329 69 -125 99 -228 307 -245 492 -10 114 29 191 109 218 45 15 167 7 256
-18z m3112 -805 c0 -5 -229 -239 -510 -520 l-509 -509 -63 62 -62 63 514 514
515 515 57 -57 c32 -32 58 -62 58 -68z m-2100 -420 l484 -484 -62 -63 -63 -62
-486 486 -485 486 58 60 c33 33 61 61 64 61 3 1 223 -217 490 -484z m825 -615
c158 -67 198 -286 74 -409 -158 -159 -431 -46 -431 179 0 187 183 305 357 230z
m-401 -530 l59 -61 -33 -34 c-46 -47 -89 -61 -128 -41 -35 18 -55 66 -42 100
9 25 68 96 79 96 3 0 33 -27 65 -60z m701 18 c19 -23 38 -52 41 -64 13 -52
-49 -113 -103 -100 -13 4 -43 24 -66 46 l-42 38 60 61 c33 33 63 61 67 61 3 0
23 -19 43 -42z" />
    <path fill="#f8f9f9" d="M2450 4604 c-159 -10 -347 -44 -495 -90 -115 -35 -282 -104 -305
-126 -43 -41 -31 -110 24 -136 25 -13 34 -12 85 8 31 12 62 22 69 23 8 1 26
-33 46 -86 19 -48 42 -94 52 -102 50 -38 134 2 134 62 0 15 -13 64 -30 108
-16 44 -26 82 -22 86 22 21 328 79 415 79 l47 0 0 -72 c0 -105 14 -145 56
-165 31 -16 37 -16 68 0 42 20 56 60 56 165 l0 72 48 0 c85 0 391 -58 414 -79
4 -4 -6 -42 -22 -86 -37 -99 -37 -125 -4 -159 58 -57 125 -19 163 94 32 96 28
93 99 64 82 -33 131 -18 147 43 11 45 -12 80 -69 107 -172 82 -373 141 -575
170 -103 15 -311 25 -401 20z" />
    <path fill="#f8f9f9" d="M288 3723 c-24 -27 -65 -114 -114 -238 -221 -567 -230 -1209 -23
-1789 58 -163 180 -406 277 -551 256 -382 595 -678 1007 -881 255 -125 484
-196 775 -241 161 -24 539 -24 700 0 291 45 520 116 775 241 417 205 757 504
1016 893 94 143 227 416 283 583 159 474 178 981 54 1459 -55 216 -168 496
-211 526 -26 18 -76 19 -100 1 -9 -7 -22 -27 -28 -44 -9 -28 -6 -42 34 -129
91 -198 160 -435 194 -662 24 -160 24 -502 0 -661 -39 -259 -109 -485 -221
-715 -126 -257 -251 -432 -460 -641 -209 -209 -384 -334 -641 -460 -230 -112
-456 -182 -715 -221 -159 -24 -501 -24 -660 0 -420 64 -790 220 -1135 480
-103 78 -344 319 -422 422 -260 345 -415 713 -480 1135 -24 158 -24 500 0 661
34 227 102 458 196 667 46 101 48 139 8 167 -29 21 -90 19 -109 -2z" />
    <path fill="#f8f9f9" d="M747 3480 c-65 -51 -172 -363 -213 -621 -21 -127 -23 -423 -5 -554
95 -672 479 -1230 1066 -1548 467 -252 1026 -311 1539 -161 715 209 1266 801
1425 1529 34 159 45 266 44 450 0 251 -35 454 -117 677 -75 205 -110 256 -170
244 -77 -16 -89 -65 -42 -173 37 -83 99 -264 111 -320 7 -36 9 -35 -104 -53
-86 -14 -121 -40 -121 -90 0 -78 42 -97 165 -76 49 9 91 13 93 11 3 -3 9 -57
14 -120 8 -107 -1 -337 -14 -351 -3 -3 -45 2 -93 11 -122 23 -165 4 -165 -75
0 -51 33 -74 134 -93 49 -9 91 -18 93 -21 16 -16 -141 -446 -163 -446 -3 0
-40 20 -83 45 -43 25 -90 45 -104 45 -41 0 -81 -41 -81 -83 0 -46 11 -58 105
-112 l79 -46 -40 -59 c-48 -70 -118 -156 -202 -246 l-61 -65 -76 81 c-87 92
-112 100 -162 51 -48 -48 -40 -77 48 -178 l53 -62 -32 -24 c-68 -51 -181 -119
-279 -168 -113 -57 -107 -58 -135 26 -24 72 -51 122 -69 129 -58 22 -125 -16
-125 -71 0 -15 13 -64 30 -108 16 -44 26 -82 22 -86 -22 -22 -322 -79 -411
-79 l-51 0 0 73 c0 104 -14 144 -56 164 -31 16 -37 16 -68 0 -42 -20 -56 -60
-56 -164 l0 -73 -47 0 c-85 0 -378 55 -415 77 -4 2 6 41 22 85 17 45 30 95 30
110 0 40 -40 78 -81 78 -47 0 -74 -31 -105 -119 -15 -42 -31 -80 -35 -85 -17
-19 -392 194 -406 231 -3 7 17 39 44 70 84 97 91 127 44 174 -43 43 -74 39
-130 -18 -26 -27 -59 -63 -74 -82 l-28 -34 -41 39 c-56 55 -179 202 -227 273
l-41 59 78 45 c89 52 99 62 108 105 5 26 1 36 -24 62 -42 41 -70 39 -163 -15
-43 -25 -80 -45 -83 -45 -14 0 -108 232 -141 351 -27 95 -25 108 14 109 57 0
147 25 168 46 43 43 24 124 -33 138 -14 4 -64 0 -111 -9 -47 -9 -87 -14 -90
-11 -14 14 -24 246 -15 352 6 63 12 118 15 120 3 3 44 -2 92 -11 122 -23 165
-4 165 75 0 50 -35 76 -121 90 -113 18 -111 17 -104 53 12 56 74 237 111 320
24 56 33 88 29 107 -13 60 -82 86 -128 50z" />
  </g>
</svg>