<?xml version="1.0" standalone="no"?>
<!DOCTYPE svg PUBLIC "-//W3C//DTD SVG 20010904//EN" "http://www.w3.org/TR/2001/REC-SVG-20010904/DTD/svg10.dtd">
<svg version="1.0" xmlns="http://www.w3.org/2000/svg" width="85.000000pt" height="85.000000pt" viewBox="0 0 85.000000 85.000000" preserveAspectRatio="xMidYMid meet">

  <g transform="translate(0.000000,85.000000) scale(0.100000,-0.100000)" fill="#000000" stroke="none">
    <path fill="#f8f9f9" d="M368 819 c-21 -12 -24 -49 -6 -67 17 -17 65 -15 72 4 11 29 6 53 -13
64 -24 12 -31 12 -53 -1z m50 -37 c3 -18 -1 -22 -22 -22 -19 0 -26 5 -26 18 0
39 43 43 48 4z" />
    <path fill="#f8f9f9" d="M124 766 c-19 -9 -36 -26 -44 -47 -8 -19 -22 -45 -32 -58 -22 -29
-23 -89 -3 -118 10 -14 12 -24 5 -28 -5 -3 -10 -23 -10 -44 0 -31 7 -44 51
-85 48 -45 78 -55 86 -29 3 7 -3 10 -15 6 -11 -3 -25 2 -33 12 -8 9 -26 28
-41 42 -30 28 -35 61 -16 92 9 14 8 23 -5 42 -22 30 -22 77 0 101 10 11 22 34
28 51 20 63 101 73 133 17 14 -24 22 -29 55 -27 46 2 67 -20 67 -68 0 -46 -34
-79 -76 -72 -27 5 -35 1 -49 -20 -12 -18 -22 -23 -40 -19 -20 5 -23 1 -28 -31
-8 -45 8 -67 16 -24 4 17 13 31 20 31 8 0 26 9 40 20 14 11 37 20 52 20 40 0
85 50 85 93 0 20 -3 43 -6 52 -9 23 -60 46 -88 39 -19 -4 -26 -1 -31 15 -6 21
-53 51 -77 51 -7 -1 -27 -7 -44 -14z" />
    <path fill="#f8f9f9" d="M378 483 c-15 -14 -25 -15 -83 -5 -77 13 -95 8 -95 -23 0 -28 -12
-24 249 -64 142 -22 198 -27 208 -19 33 27 -1 54 -82 63 -56 6 -67 10 -75 29
-5 13 -16 26 -25 30 -31 11 -81 6 -97 -11z m102 -28 c10 -26 22 -31 109 -43
30 -4 52 -11 50 -17 -5 -12 15 -14 -214 20 -174 26 -217 36 -204 49 3 3 55 -3
117 -13 62 -10 115 -14 117 -10 6 8 -19 19 -46 19 -11 0 -17 5 -14 10 3 6 22
10 41 10 27 0 36 -5 44 -25z" />
    <path fill="#f8f9f9" d="M712 408 c-27 -27 -6 -68 34 -68 28 0 46 23 42 52 -2 17 -10 24 -33
26 -17 2 -36 -3 -43 -10z m58 -28 c0 -15 -7 -20 -25 -20 -24 0 -34 18 -18 33
15 15 43 7 43 -13z" />
    <path fill="#f8f9f9" d="M207 344 c-11 -11 -8 -44 3 -44 6 0 10 -13 10 -30 l0 -30 -36 18 -37
17 29 6 c23 5 26 7 12 13 -26 12 -53 3 -53 -17 0 -10 17 -27 40 -40 31 -17 41
-30 43 -52 2 -17 8 -34 13 -39 5 -6 9 20 9 67 l0 77 65 0 c37 0 65 4 65 10 0
6 -32 10 -75 10 -43 0 -75 4 -75 10 0 6 78 10 215 10 137 0 215 -4 215 -10 0
-6 -34 -10 -81 -10 -51 0 -78 -4 -74 -10 3 -5 33 -10 66 -10 l59 0 0 -69 c0
-75 14 -102 24 -47 7 36 28 60 63 70 22 7 37 32 27 47 -7 12 -51 12 -59 0 -3
-5 6 -11 20 -13 23 -3 22 -4 -15 -25 l-40 -21 0 28 c0 16 7 33 16 38 9 5 14
18 12 28 -3 18 -16 19 -229 22 -124 1 -228 -1 -232 -4z" />
    <path fill="#f8f9f9" d="M420 300 c0 -5 4 -10 9 -10 6 0 13 5 16 10 3 6 -1 10 -9 10 -9 0 -16
-4 -16 -10z" />
    <path fill="#f8f9f9" d="M700 200 c0 -5 5 -10 11 -10 5 0 7 5 4 10 -3 6 -8 10 -11 10 -2 0 -4
-4 -4 -10z" />
    <path fill="#f8f9f9" d="M340 160 c0 -5 5 -10 10 -10 6 0 10 5 10 10 0 6 -4 10 -10 10 -5 0
-10 -4 -10 -10z" />
    <path fill="#f8f9f9" d="M165 121 c-9 -30 2 -57 36 -86 31 -25 31 -25 234 -25 202 0 204 0
233 25 33 28 48 70 32 90 -8 10 -18 10 -43 1 -17 -6 -37 -14 -43 -18 -7 -4
-17 -1 -24 7 -17 21 -31 19 -59 -10 -28 -30 -37 -31 -44 -5 -3 11 -17 25 -31
31 -20 10 -30 9 -51 -5 -14 -9 -25 -23 -25 -31 0 -22 -14 -18 -50 11 -29 25
-32 25 -49 10 -11 -10 -22 -13 -25 -8 -3 5 -16 12 -28 15 -13 2 -30 8 -40 11
-11 5 -18 1 -23 -13z m293 -13 c7 -7 12 -20 12 -30 0 -26 33 -23 68 7 32 27
42 24 42 -14 l0 -25 28 26 c31 30 82 47 82 28 0 -6 -13 -25 -29 -41 l-29 -29
-199 0 c-140 1 -203 4 -214 13 -18 14 -43 57 -36 63 9 9 56 -8 73 -27 22 -24
34 -24 34 -1 0 31 11 33 42 7 35 -30 68 -33 68 -7 0 20 18 42 35 42 6 0 16 -5
23 -12z" />
  </g>
</svg>